<?xml version="1.0" encoding="UTF-8"?>
<!DOCTYPE svg PUBLIC "-//W3C//DTD SVG 1.1//EN" "http://www.w3.org/Graphics/SVG/1.1/DTD/svg11.dtd">
<svg xmlns="http://www.w3.org/2000/svg" version="1.1" width="282px" height="271px" style="shape-rendering:geometricPrecision; text-rendering:geometricPrecision; image-rendering:optimizeQuality; fill-rule:evenodd; clip-rule:evenodd" xmlns:xlink="http://www.w3.org/1999/xlink">
<g><path style="opacity:0.529" fill="#8d8d8d" d="M 144.5,17.5 C 140.131,17.4672 135.798,17.8005 131.5,18.5C 133.848,17.0483 136.514,16.3817 139.5,16.5C 141.369,16.5068 143.036,16.8401 144.5,17.5 Z"/></g>
<g><path style="opacity:1" fill="#1f1d1d" d="M 144.5,17.5 C 152.888,19.8872 159.222,24.8872 163.5,32.5C 163.427,34.0269 164.094,35.0269 165.5,35.5C 165.427,37.0269 166.094,38.0269 167.5,38.5C 168.674,39.5137 169.34,40.847 169.5,42.5C 169.12,44.698 169.787,46.3646 171.5,47.5C 171.5,47.8333 171.5,48.1667 171.5,48.5C 171.294,51.4951 171.96,54.1617 173.5,56.5C 173.187,60.0419 173.521,63.3752 174.5,66.5C 175.15,68.4352 175.483,70.4352 175.5,72.5C 175.167,73.5 174.5,74.1667 173.5,74.5C 171.142,74.7475 169.142,74.0808 167.5,72.5C 167.5,70.8333 167.5,69.1667 167.5,67.5C 168.167,67.5 168.5,67.1667 168.5,66.5C 169.823,62.4023 169.489,58.4023 167.5,54.5C 165.52,49.5758 163.52,44.5758 161.5,39.5C 161.715,37.8212 161.048,36.8212 159.5,36.5C 158.512,35.205 157.512,33.8717 156.5,32.5C 155.5,29.5 153.5,27.5 150.5,26.5C 147.314,25.4031 144.314,24.0697 141.5,22.5C 138.988,21.1326 136.655,21.466 134.5,23.5C 132.956,23.2969 131.622,22.6302 130.5,21.5C 129.259,24.144 127.259,24.9774 124.5,24C 125.056,23.6174 125.389,23.1174 125.5,22.5C 127.404,22.2624 128.738,21.2624 129.5,19.5C 129.842,18.6618 130.508,18.3284 131.5,18.5C 135.798,17.8005 140.131,17.4672 144.5,17.5 Z"/></g>
<g><path style="opacity:0.682" fill="#838383" d="M 129.5,19.5 C 128.738,21.2624 127.404,22.2624 125.5,22.5C 126.262,20.7376 127.596,19.7376 129.5,19.5 Z"/></g>
<g><path style="opacity:0.533" fill="#8a8a8a" d="M 141.5,22.5 C 139.139,22.6741 136.806,23.0074 134.5,23.5C 136.655,21.466 138.988,21.1326 141.5,22.5 Z"/></g>
<g><path style="opacity:1" fill="#393939" d="M 134.5,23.5 C 130.568,26.0917 126.901,29.0917 123.5,32.5C 122.902,30.1978 122.569,28.1978 122.5,26.5C 122.5,26.1667 122.5,25.8333 122.5,25.5C 122.856,23.8102 123.856,22.8102 125.5,22.5C 125.389,23.1174 125.056,23.6174 124.5,24C 127.259,24.9774 129.259,24.144 130.5,21.5C 131.622,22.6302 132.956,23.2969 134.5,23.5 Z"/></g>
<g><path style="opacity:0.373" fill="#b6b6b6" d="M 122.5,25.5 C 122.5,25.8333 122.5,26.1667 122.5,26.5C 121.833,26.8333 121.167,27.1667 120.5,27.5C 120.5,26.1667 121.167,25.5 122.5,25.5 Z"/></g>
<g><path style="opacity:0.871" fill="#8d8d8d" d="M 150.5,26.5 C 153.5,27.5 155.5,29.5 156.5,32.5C 154.167,30.8333 152.167,28.8333 150.5,26.5 Z"/></g>
<g><path style="opacity:1" fill="#1a1a1a" d="M 122.5,26.5 C 122.569,28.1978 122.902,30.1978 123.5,32.5C 122.083,35.669 120.417,38.669 118.5,41.5C 116.926,43.1016 116.259,45.1016 116.5,47.5C 116.737,48.791 116.404,49.791 115.5,50.5C 114.539,52.2646 114.205,54.2646 114.5,56.5C 113.833,56.5 113.5,56.8333 113.5,57.5C 112.834,61.3525 112.167,65.3525 111.5,69.5C 110.832,66.6944 110.166,64.0277 109.5,61.5C 109.5,60.1667 109.5,58.8333 109.5,57.5C 109.5,55.8333 109.5,54.1667 109.5,52.5C 109.5,52.1667 109.5,51.8333 109.5,51.5C 111.277,48.4954 112.277,45.1621 112.5,41.5C 112.796,39.597 113.463,37.9303 114.5,36.5C 115.906,36.0269 116.573,35.0269 116.5,33.5C 116.427,31.9731 117.094,30.9731 118.5,30.5C 119.906,30.0269 120.573,29.0269 120.5,27.5C 121.167,27.1667 121.833,26.8333 122.5,26.5 Z"/></g>
<g><path style="opacity:0.616" fill="#818181" d="M 120.5,27.5 C 120.573,29.0269 119.906,30.0269 118.5,30.5C 118.427,28.9731 119.094,27.9731 120.5,27.5 Z"/></g>
<g><path style="opacity:0.624" fill="#747474" d="M 163.5,32.5 C 164.906,32.9731 165.573,33.9731 165.5,35.5C 164.094,35.0269 163.427,34.0269 163.5,32.5 Z"/></g>
<g><path style="opacity:0.322" fill="#a7a7a7" d="M 116.5,33.5 C 116.573,35.0269 115.906,36.0269 114.5,36.5C 114.427,34.9731 115.094,33.9731 116.5,33.5 Z"/></g>
<g><path style="opacity:0.957" fill="#707070" d="M 159.5,36.5 C 161.048,36.8212 161.715,37.8212 161.5,39.5C 160.599,38.7095 159.932,37.7095 159.5,36.5 Z"/></g>
<g><path style="opacity:0.4" fill="#959595" d="M 165.5,35.5 C 166.906,35.9731 167.573,36.9731 167.5,38.5C 166.094,38.0269 165.427,37.0269 165.5,35.5 Z"/></g>
<g><path style="opacity:0.902" fill="#818284" d="M 112.5,41.5 C 112.277,45.1621 111.277,48.4954 109.5,51.5C 109.723,47.8379 110.723,44.5046 112.5,41.5 Z"/></g>
<g><path style="opacity:0.447" fill="#a3a3a3" d="M 118.5,41.5 C 118.405,43.7857 117.738,45.7857 116.5,47.5C 116.259,45.1016 116.926,43.1016 118.5,41.5 Z"/></g>
<g><path style="opacity:0.89" fill="#807980" d="M 169.5,42.5 C 170.537,43.9303 171.204,45.597 171.5,47.5C 169.787,46.3646 169.12,44.698 169.5,42.5 Z"/></g>
<g><path style="opacity:0.682" fill="#847f7f" d="M 171.5,48.5 C 173.04,50.8383 173.706,53.5049 173.5,56.5C 171.96,54.1617 171.294,51.4951 171.5,48.5 Z"/></g>
<g><path style="opacity:0.049" fill="#fbe7d4" d="M 109.5,52.5 C 109.5,54.1667 109.5,55.8333 109.5,57.5C 109.167,57.5 108.833,57.5 108.5,57.5C 94.1667,57.5 79.8333,57.5 65.5,57.5C 79.6569,56.5041 93.9903,56.1707 108.5,56.5C 108.232,54.901 108.566,53.5676 109.5,52.5 Z"/></g>
<g><path style="opacity:0.048" fill="#fae6d4" d="M 115.5,50.5 C 115.5,52.5 115.5,54.5 115.5,56.5C 132.833,56.5 150.167,56.5 167.5,56.5C 167.5,56.8333 167.5,57.1667 167.5,57.5C 149.659,57.8301 131.992,57.4967 114.5,56.5C 114.205,54.2646 114.539,52.2646 115.5,50.5 Z"/></g>
<g><path style="opacity:0.762" fill="#e58660" d="M 65.5,57.5 C 79.8333,57.5 94.1667,57.5 108.5,57.5C 108.5,58.1667 108.167,58.5 107.5,58.5C 93.5,58.5 79.5,58.5 65.5,58.5C 65.405,60.7857 64.7384,62.7857 63.5,64.5C 63.3379,62.4727 63.5045,60.4727 64,58.5C 64.3826,57.944 64.8826,57.6107 65.5,57.5 Z"/></g>
<g><path style="opacity:0.777" fill="#d56d47" d="M 114.5,56.5 C 131.992,57.4967 149.659,57.8301 167.5,57.5C 168.299,60.4299 168.632,63.4299 168.5,66.5C 168.5,67.1667 168.167,67.5 167.5,67.5C 167.726,64.7508 167.393,62.0841 166.5,59.5C 149.179,58.5005 131.846,58.1672 114.5,58.5C 114.5,61.5 114.5,64.5 114.5,67.5C 113.521,64.3752 113.187,61.0419 113.5,57.5C 113.5,56.8333 113.833,56.5 114.5,56.5 Z"/></g>
<g><path style="opacity:0.767" fill="#e79471" d="M 173.5,56.5 C 189.675,56.1703 205.675,56.5036 221.5,57.5C 221.5,58.5 221.5,59.5 221.5,60.5C 220.527,60.0133 219.527,59.5133 218.5,59C 204.5,58.3333 190.5,58.3333 176.5,59C 175.565,61.3806 175.232,63.8806 175.5,66.5C 175.167,66.5 174.833,66.5 174.5,66.5C 173.521,63.3752 173.187,60.0419 173.5,56.5 Z"/></g>
<g><path style="opacity:1" fill="#ea501c" d="M 167.5,67.5 C 167.5,69.1667 167.5,70.8333 167.5,72.5C 165.516,72.516 164.516,71.516 164.5,69.5C 166.478,66.7789 166.811,63.9455 165.5,61C 148.826,60.6226 132.159,60.1226 115.5,59.5C 115.349,63.8403 116.349,67.8403 118.5,71.5C 118.48,72.7261 118.147,73.7261 117.5,74.5C 117.768,72.901 117.434,71.5676 116.5,70.5C 115.833,69.5 115.167,68.5 114.5,67.5C 114.5,64.5 114.5,61.5 114.5,58.5C 131.846,58.1672 149.179,58.5005 166.5,59.5C 167.393,62.0841 167.726,64.7508 167.5,67.5 Z"/></g>
<g><path style="opacity:1" fill="#fd5013" d="M 221.5,60.5 C 221.833,63.8333 222.167,67.1667 222.5,70.5C 224.289,86.969 226.289,103.469 228.5,120C 230.122,126.311 231.789,132.478 233.5,138.5C 233.5,138.833 233.5,139.167 233.5,139.5C 234.019,147.827 234.519,156.16 235,164.5C 235.743,167.192 236.91,169.525 238.5,171.5C 238.516,186.727 240.85,201.394 245.5,215.5C 245.466,219.859 245.799,224.192 246.5,228.5C 246.679,231.633 245.679,234.299 243.5,236.5C 244.833,236.833 246.167,237.167 247.5,237.5C 248.971,240.321 248.637,242.821 246.5,245C 175.834,245.5 105.167,245.667 34.5,245.5C 35.6504,239.226 36.3171,232.893 36.5,226.5C 38.1511,220.743 39.1511,214.743 39.5,208.5C 40.6058,196.639 42.6058,184.973 45.5,173.5C 46.9265,171.852 47.7599,169.852 48,167.5C 48.9247,160.069 50.258,152.736 52,145.5C 52.4992,140.845 52.6658,136.179 52.5,131.5C 52.3284,130.508 52.6618,129.842 53.5,129.5C 56.9011,118.563 58.9011,107.229 59.5,95.5C 59.5,95.1667 59.5,94.8333 59.5,94.5C 60.9758,92.2314 62.4758,89.8981 64,87.5C 64.5923,84.3056 64.4257,81.1389 63.5,78C 63.9439,72.3749 64.9439,66.8749 66.5,61.5C 79.7291,60.8248 92.8958,60.1581 106,59.5C 106.497,62.146 106.664,64.8127 106.5,67.5C 104.66,75.4912 107.66,78.6578 115.5,77C 116.381,76.2917 117.047,75.4584 117.5,74.5C 118.147,73.7261 118.48,72.7261 118.5,71.5C 116.349,67.8403 115.349,63.8403 115.5,59.5C 132.159,60.1226 148.826,60.6226 165.5,61C 166.811,63.9455 166.478,66.7789 164.5,69.5C 164.516,71.516 165.516,72.516 167.5,72.5C 167.414,73.4959 167.748,74.3292 168.5,75C 170.387,75.7796 172.054,75.6129 173.5,74.5C 174.5,74.1667 175.167,73.5 175.5,72.5C 176.742,70.6112 176.742,68.6112 175.5,66.5C 175.232,63.8806 175.565,61.3806 176.5,59C 190.5,58.3333 204.5,58.3333 218.5,59C 219.527,59.5133 220.527,60.0133 221.5,60.5 Z M 160.5,102.5 C 164.434,105.243 168.767,107.243 173.5,108.5C 174.262,110.262 175.596,111.262 177.5,111.5C 177.856,113.19 178.856,114.19 180.5,114.5C 181.833,116.5 183.5,118.167 185.5,119.5C 189.615,125.725 192.615,132.392 194.5,139.5C 194.666,143.514 194.499,147.514 194,151.5C 192.128,153.847 189.961,155.847 187.5,157.5C 184.615,157.194 181.948,157.527 179.5,158.5C 170.794,158.811 162.127,159.477 153.5,160.5C 142.491,161.042 131.491,161.709 120.5,162.5C 118.167,162.5 115.833,162.5 113.5,162.5C 113.67,163.822 113.337,164.989 112.5,166C 114.159,168.844 116.159,171.344 118.5,173.5C 118.5,174.833 119.167,175.5 120.5,175.5C 122.834,179.276 126.167,181.609 130.5,182.5C 141.361,187.42 152.361,187.753 163.5,183.5C 166.649,183.585 169.316,182.585 171.5,180.5C 173.819,180.008 175.819,179.008 177.5,177.5C 179.179,177.715 180.179,177.048 180.5,175.5C 182.027,175.573 183.027,174.906 183.5,173.5C 184.496,173.414 185.329,173.748 186,174.5C 188.029,178.58 190.529,182.246 193.5,185.5C 193.5,186.5 193.5,187.5 193.5,188.5C 189.293,190.435 185.627,193.102 182.5,196.5C 178.407,197.382 174.74,199.049 171.5,201.5C 170.833,201.5 170.167,201.5 169.5,201.5C 167.102,201.259 165.102,201.926 163.5,203.5C 155.521,204.224 147.521,204.558 139.5,204.5C 135.705,203.383 131.705,202.717 127.5,202.5C 126.432,201.566 125.099,201.232 123.5,201.5C 119.21,199.509 114.876,197.509 110.5,195.5C 110.027,194.094 109.027,193.427 107.5,193.5C 106.564,192.026 105.23,191.026 103.5,190.5C 102.215,188.548 100.549,186.882 98.5,185.5C 98.2624,183.596 97.2624,182.262 95.5,181.5C 95.0075,179.181 94.0075,177.181 92.5,175.5C 87.2369,160.869 87.2369,146.202 92.5,131.5C 93.7368,130.035 94.7368,128.368 95.5,126.5C 96.9063,126.027 97.573,125.027 97.5,123.5C 98.9063,123.027 99.573,122.027 99.5,120.5C 101.144,120.19 102.144,119.19 102.5,117.5C 103.167,117.5 103.5,117.167 103.5,116.5C 105.773,116.043 107.106,114.71 107.5,112.5C 109.853,111.66 111.853,110.326 113.5,108.5C 114.492,108.672 115.158,108.338 115.5,107.5C 117.674,107.25 119.341,106.25 120.5,104.5C 127.698,102.535 135.032,101.202 142.5,100.5C 148.497,101.262 154.497,101.928 160.5,102.5 Z"/></g>
<g><path style="opacity:1" fill="#7a311f" d="M 167.5,54.5 C 169.489,58.4023 169.823,62.4023 168.5,66.5C 168.632,63.4299 168.299,60.4299 167.5,57.5C 167.5,57.1667 167.5,56.8333 167.5,56.5C 167.5,55.8333 167.5,55.1667 167.5,54.5 Z"/></g>
<g><path style="opacity:1" fill="#570806" d="M 174.5,66.5 C 174.833,66.5 175.167,66.5 175.5,66.5C 176.742,68.6112 176.742,70.6112 175.5,72.5C 175.483,70.4352 175.15,68.4352 174.5,66.5 Z"/></g>
<g><path style="opacity:1" fill="#1d0201" d="M 113.5,57.5 C 113.187,61.0419 113.521,64.3752 114.5,67.5C 115.167,68.5 115.833,69.5 116.5,70.5C 115.974,76.6426 113.14,77.9759 108,74.5C 108.343,70.1911 108.843,65.8578 109.5,61.5C 110.166,64.0277 110.832,66.6944 111.5,69.5C 112.167,65.3525 112.834,61.3525 113.5,57.5 Z"/></g>
<g><path style="opacity:0.867" fill="#efae8f" d="M 63.5,65.5 C 63.6641,68.1873 63.4974,70.854 63,73.5C 62.7216,74.4158 62.2216,75.0825 61.5,75.5C 61.5488,71.9219 62.2154,68.5885 63.5,65.5 Z"/></g>
<g><path style="opacity:1" fill="#ab4423" d="M 108.5,57.5 C 108.833,57.5 109.167,57.5 109.5,57.5C 109.5,58.8333 109.5,60.1667 109.5,61.5C 108.843,65.8578 108.343,70.1911 108,74.5C 113.14,77.9759 115.974,76.6426 116.5,70.5C 117.434,71.5676 117.768,72.901 117.5,74.5C 117.047,75.4584 116.381,76.2917 115.5,77C 107.66,78.6578 104.66,75.4912 106.5,67.5C 107.477,64.7131 107.81,61.7131 107.5,58.5C 108.167,58.5 108.5,58.1667 108.5,57.5 Z"/></g>
<g><path style="opacity:1" fill="#7d2716" d="M 167.5,72.5 C 169.142,74.0808 171.142,74.7475 173.5,74.5C 172.054,75.6129 170.387,75.7796 168.5,75C 167.748,74.3292 167.414,73.4959 167.5,72.5 Z"/></g>
<g><path style="opacity:0.8" fill="#efb495" d="M 61.5,75.5 C 61.6646,78.5184 61.498,81.5184 61,84.5C 60.7216,85.4158 60.2216,86.0825 59.5,86.5C 59.6459,82.6125 60.3126,78.9458 61.5,75.5 Z"/></g>
<g><path style="opacity:1" fill="#eb561f" d="M 107.5,58.5 C 107.81,61.7131 107.477,64.7131 106.5,67.5C 106.664,64.8127 106.497,62.146 106,59.5C 92.8958,60.1581 79.7291,60.8248 66.5,61.5C 64.9439,66.8749 63.9439,72.3749 63.5,78C 64.4257,81.1389 64.5923,84.3056 64,87.5C 62.4758,89.8981 60.9758,92.2314 59.5,94.5C 59.5,91.8333 59.5,89.1667 59.5,86.5C 60.2216,86.0825 60.7216,85.4158 61,84.5C 61.498,81.5184 61.6646,78.5184 61.5,75.5C 62.2216,75.0825 62.7216,74.4158 63,73.5C 63.4974,70.854 63.6641,68.1873 63.5,65.5C 63.5,65.1667 63.5,64.8333 63.5,64.5C 64.7384,62.7857 65.405,60.7857 65.5,58.5C 79.5,58.5 93.5,58.5 107.5,58.5 Z"/></g>
<g><path style="opacity:0.827" fill="#f2af90" d="M 221.5,57.5 C 225.322,75.5656 228.322,93.899 230.5,112.5C 227.615,98.5215 224.948,84.5215 222.5,70.5C 222.167,67.1667 221.833,63.8333 221.5,60.5C 221.5,59.5 221.5,58.5 221.5,57.5 Z"/></g>
<g><path style="opacity:0.776" fill="#f5c2a6" d="M 59.5,86.5 C 59.5,89.1667 59.5,91.8333 59.5,94.5C 59.5,94.8333 59.5,95.1667 59.5,95.5C 57.754,103.898 55.754,112.231 53.5,120.5C 54.8831,108.932 56.8831,97.5988 59.5,86.5 Z"/></g>
<g><path style="opacity:1" fill="#f05a25" d="M 123.5,100.5 C 122.737,101.268 121.737,101.768 120.5,102C 119.748,102.671 119.414,103.504 119.5,104.5C 117.77,105.026 116.436,106.026 115.5,107.5C 115.158,108.338 114.492,108.672 113.5,108.5C 110.802,108.845 108.802,110.178 107.5,112.5C 105.659,113.402 104.326,114.736 103.5,116.5C 103.5,117.167 103.167,117.5 102.5,117.5C 100.5,117.5 99.5,118.5 99.5,120.5C 98.0937,120.973 97.427,121.973 97.5,123.5C 96.5,123.833 95.8333,124.5 95.5,125.5C 95.1667,125.5 94.8333,125.5 94.5,125.5C 95.0084,123.135 95.6751,120.801 96.5,118.5C 97.325,117.614 98.325,117.281 99.5,117.5C 99.5,115.833 99.5,114.167 99.5,112.5C 101.5,112.5 103.5,112.5 105.5,112.5C 106.137,107.74 108.471,103.907 112.5,101C 112.167,100.667 111.833,100.333 111.5,100C 113.49,100.138 115.49,100.638 117.5,101.5C 119.453,100.844 121.453,100.511 123.5,100.5 Z"/></g>
<g><path style="opacity:1" fill="#dc5e2f" d="M 136.5,99.5 C 130.944,100.352 125.61,102.018 120.5,104.5C 120.167,104.5 119.833,104.5 119.5,104.5C 119.414,103.504 119.748,102.671 120.5,102C 121.737,101.768 122.737,101.268 123.5,100.5C 127.798,99.8005 132.131,99.4672 136.5,99.5 Z"/></g>
<g><path style="opacity:0.271" fill="#fbcbb0" d="M 136.5,99.5 C 144.826,98.9922 152.826,99.9922 160.5,102.5C 154.497,101.928 148.497,101.262 142.5,100.5C 135.032,101.202 127.698,102.535 120.5,104.5C 125.61,102.018 130.944,100.352 136.5,99.5 Z"/></g>
<g><path style="opacity:0.212" fill="#fdd5c2" d="M 119.5,104.5 C 119.833,104.5 120.167,104.5 120.5,104.5C 119.341,106.25 117.674,107.25 115.5,107.5C 116.436,106.026 117.77,105.026 119.5,104.5 Z"/></g>
<g><path style="opacity:0.698" fill="#f0ab92" d="M 160.5,102.5 C 162.199,102.34 163.866,102.506 165.5,103C 168.487,104.544 171.154,106.378 173.5,108.5C 168.767,107.243 164.434,105.243 160.5,102.5 Z"/></g>
<g><path style="opacity:0.302" fill="#fac7aa" d="M 113.5,108.5 C 111.853,110.326 109.853,111.66 107.5,112.5C 108.802,110.178 110.802,108.845 113.5,108.5 Z"/></g>
<g><path style="opacity:0.451" fill="#fac0a5" d="M 173.5,108.5 C 174.167,108.5 174.833,108.5 175.5,108.5C 176.167,109.5 176.833,110.5 177.5,111.5C 175.596,111.262 174.262,110.262 173.5,108.5 Z"/></g>
<g><path style="opacity:1" fill="#e05b2e" d="M 59.5,95.5 C 58.9011,107.229 56.9011,118.563 53.5,129.5C 53.5,126.5 53.5,123.5 53.5,120.5C 55.754,112.231 57.754,103.898 59.5,95.5 Z"/></g>
<g><path style="opacity:0.024" fill="#ffdec3" d="M 107.5,112.5 C 107.106,114.71 105.773,116.043 103.5,116.5C 104.326,114.736 105.659,113.402 107.5,112.5 Z"/></g>
<g><path style="opacity:0.016" fill="#f9dec8" d="M 177.5,111.5 C 179.144,111.81 180.144,112.81 180.5,114.5C 178.856,114.19 177.856,113.19 177.5,111.5 Z"/></g>
<g><path style="opacity:1" fill="#e05e31" d="M 175.5,108.5 C 177.179,108.892 178.846,109.392 180.5,110C 182.61,113.279 185.277,116.112 188.5,118.5C 189.309,120.071 189.643,121.738 189.5,123.5C 188.167,122.167 186.833,120.833 185.5,119.5C 184.833,116.833 183.167,115.167 180.5,114.5C 180.144,112.81 179.144,111.81 177.5,111.5C 176.833,110.5 176.167,109.5 175.5,108.5 Z"/></g>
<g><path style="opacity:0.569" fill="#f8c0a3" d="M 180.5,114.5 C 183.167,115.167 184.833,116.833 185.5,119.5C 183.5,118.167 181.833,116.5 180.5,114.5 Z"/></g>
<g><path style="opacity:0.216" fill="#f8bfb0" d="M 102.5,117.5 C 102.144,119.19 101.144,120.19 99.5,120.5C 99.5,118.5 100.5,117.5 102.5,117.5 Z"/></g>
<g><path style="opacity:0.447" fill="#f7c5aa" d="M 147.5,119.5 C 149.786,119.595 151.786,120.262 153.5,121.5C 151.102,121.741 149.102,121.074 147.5,119.5 Z"/></g>
<g><path style="opacity:0.847" fill="#f7bc9c" d="M 230.5,112.5 C 233.236,125.26 235.236,138.26 236.5,151.5C 235.5,147.5 234.5,143.5 233.5,139.5C 233.5,139.167 233.5,138.833 233.5,138.5C 232.064,129.884 231.064,121.217 230.5,112.5 Z"/></g>
<g><path style="opacity:0.024" fill="#fbdab9" d="M 99.5,120.5 C 99.573,122.027 98.9063,123.027 97.5,123.5C 97.427,121.973 98.0937,120.973 99.5,120.5 Z"/></g>
<g><path style="opacity:0.753" fill="#eeb093" d="M 137.5,119.5 C 135.5,120.5 133.5,121.5 131.5,122.5C 129.784,122.629 128.117,122.962 126.5,123.5C 129.569,120.81 133.236,119.477 137.5,119.5 Z"/></g>
<g><path style="opacity:1" fill="#fb5013" d="M 157.5,125.5 C 158.167,125.5 158.833,125.5 159.5,125.5C 159.833,126.167 160.167,126.833 160.5,127.5C 162.885,131.103 164.885,134.937 166.5,139C 166.415,140.107 166.081,141.107 165.5,142C 163.527,142.495 161.527,142.662 159.5,142.5C 144.827,143.051 130.16,143.718 115.5,144.5C 115.367,140.401 116.533,136.734 119,133.5C 122.814,129.17 126.981,125.504 131.5,122.5C 140.436,121.062 149.103,122.062 157.5,125.5 Z"/></g>
<g><path style="opacity:0.565" fill="#ebb796" d="M 153.5,121.5 C 155.027,121.427 156.027,122.094 156.5,123.5C 154.821,123.715 153.821,123.048 153.5,121.5 Z"/></g>
<g><path style="opacity:1" fill="#e65721" d="M 222.5,70.5 C 224.948,84.5215 227.615,98.5215 230.5,112.5C 231.064,121.217 232.064,129.884 233.5,138.5C 231.789,132.478 230.122,126.311 228.5,120C 226.289,103.469 224.289,86.969 222.5,70.5 Z"/></g>
<g><path style="opacity:1" fill="#e97142" d="M 147.5,119.5 C 149.102,121.074 151.102,121.741 153.5,121.5C 153.821,123.048 154.821,123.715 156.5,123.5C 156.833,124.167 157.167,124.833 157.5,125.5C 149.103,122.062 140.436,121.062 131.5,122.5C 133.5,121.5 135.5,120.5 137.5,119.5C 140.731,118.218 144.064,118.218 147.5,119.5 Z"/></g>
<g><path style="opacity:0.055" fill="#fbcfab" d="M 156.5,123.5 C 158.027,123.427 159.027,124.094 159.5,125.5C 158.833,125.5 158.167,125.5 157.5,125.5C 157.167,124.833 156.833,124.167 156.5,123.5 Z"/></g>
<g><path style="opacity:0.004" fill="#ffecd8" d="M 97.5,123.5 C 97.573,125.027 96.9063,126.027 95.5,126.5C 95.5,126.167 95.5,125.833 95.5,125.5C 95.8333,124.5 96.5,123.833 97.5,123.5 Z"/></g>
<g><path style="opacity:0.008" fill="#ffe4d8" d="M 159.5,125.5 C 160.833,125.5 161.5,126.167 161.5,127.5C 161.167,127.5 160.833,127.5 160.5,127.5C 160.167,126.833 159.833,126.167 159.5,125.5 Z"/></g>
<g><path style="opacity:0.243" fill="#fcd1b7" d="M 185.5,119.5 C 186.833,120.833 188.167,122.167 189.5,123.5C 191.716,127.266 193.383,131.266 194.5,135.5C 194.5,136.833 194.5,138.167 194.5,139.5C 192.615,132.392 189.615,125.725 185.5,119.5 Z"/></g>
<g><path style="opacity:0.741" fill="#f2bca0" d="M 126.5,123.5 C 122.493,127.011 118.993,131.011 116,135.5C 114.353,139.157 114.187,142.823 115.5,146.5C 113.879,146.213 112.879,145.213 112.5,143.5C 113.625,134.654 118.291,127.987 126.5,123.5 Z"/></g>
<g><path style="opacity:0.835" fill="#f2bba1" d="M 53.5,120.5 C 53.5,123.5 53.5,126.5 53.5,129.5C 52.6618,129.842 52.3284,130.508 52.5,131.5C 52.1667,131.5 51.8333,131.5 51.5,131.5C 51.8084,127.64 52.4751,123.974 53.5,120.5 Z"/></g>
<g><path style="opacity:0.349" fill="#f1ad91" d="M 94.5,125.5 C 94.8333,125.5 95.1667,125.5 95.5,125.5C 95.5,125.833 95.5,126.167 95.5,126.5C 94.7368,128.368 93.7368,130.035 92.5,131.5C 92.595,129.214 93.2616,127.214 94.5,125.5 Z"/></g>
<g><path style="opacity:0.365" fill="#eda384" d="M 160.5,127.5 C 160.833,127.5 161.167,127.5 161.5,127.5C 166.665,131.511 168.832,136.844 168,143.5C 166.374,143.146 164.541,143.146 162.5,143.5C 161.5,143.5 160.5,143.5 159.5,143.5C 159.5,143.167 159.5,142.833 159.5,142.5C 161.527,142.662 163.527,142.495 165.5,142C 166.081,141.107 166.415,140.107 166.5,139C 164.885,134.937 162.885,131.103 160.5,127.5 Z"/></g>
<g><path style="opacity:0.91" fill="#e06f45" d="M 194.5,135.5 C 195.973,138.017 196.64,140.85 196.5,144C 196.494,146.033 196.161,147.866 195.5,149.5C 195.813,145.958 195.479,142.625 194.5,139.5C 194.5,138.167 194.5,136.833 194.5,135.5 Z"/></g>
<g><path style="opacity:1" fill="#e77345" d="M 131.5,122.5 C 126.981,125.504 122.814,129.17 119,133.5C 116.533,136.734 115.367,140.401 115.5,144.5C 130.16,143.718 144.827,143.051 159.5,142.5C 159.5,142.833 159.5,143.167 159.5,143.5C 154.29,143.608 149.29,144.275 144.5,145.5C 134.858,147.21 125.192,147.543 115.5,146.5C 114.187,142.823 114.353,139.157 116,135.5C 118.993,131.011 122.493,127.011 126.5,123.5C 128.117,122.962 129.784,122.629 131.5,122.5 Z"/></g>
<g><path style="opacity:0.161" fill="#fccbad" d="M 159.5,143.5 C 160.5,143.5 161.5,143.5 162.5,143.5C 156.726,144.946 150.726,145.612 144.5,145.5C 149.29,144.275 154.29,143.608 159.5,143.5 Z"/></g>
<g><path style="opacity:1" fill="#e15b2a" d="M 51.5,131.5 C 51.8333,131.5 52.1667,131.5 52.5,131.5C 52.6658,136.179 52.4992,140.845 52,145.5C 50.258,152.736 48.9247,160.069 48,167.5C 47.7599,169.852 46.9265,171.852 45.5,173.5C 48.236,159.946 50.236,146.279 51.5,132.5C 51.5,132.167 51.5,131.833 51.5,131.5 Z"/></g>
<g><path style="opacity:0.769" fill="#e16f45" d="M 88.5,139.5 C 87.7103,146.471 87.3769,153.471 87.5,160.5C 86.8348,157.183 86.5014,153.683 86.5,150C 86.5123,146.098 87.179,142.598 88.5,139.5 Z"/></g>
<g><path style="opacity:0.345" fill="#fac5a8" d="M 194.5,139.5 C 195.479,142.625 195.813,145.958 195.5,149.5C 195.056,154.389 192.389,157.055 187.5,157.5C 189.961,155.847 192.128,153.847 194,151.5C 194.499,147.514 194.666,143.514 194.5,139.5 Z"/></g>
<g><path style="opacity:0.702" fill="#f5bb9c" d="M 51.5,132.5 C 50.236,146.279 48.236,159.946 45.5,173.5C 42.6058,184.973 40.6058,196.639 39.5,208.5C 38.8333,209.5 38.1667,210.5 37.5,211.5C 41.4369,184.913 46.1036,158.579 51.5,132.5 Z"/></g>
<g><path style="opacity:0.141" fill="#fbcfb7" d="M 92.5,131.5 C 87.2369,146.202 87.2369,160.869 92.5,175.5C 89.47,171.077 87.8034,166.077 87.5,160.5C 87.3769,153.471 87.7103,146.471 88.5,139.5C 89.2794,136.455 90.6127,133.789 92.5,131.5 Z"/></g>
<g><path style="opacity:1" fill="#e75723" d="M 233.5,139.5 C 234.5,143.5 235.5,147.5 236.5,151.5C 237.036,158.181 237.703,164.848 238.5,171.5C 236.91,169.525 235.743,167.192 235,164.5C 234.519,156.16 234.019,147.827 233.5,139.5 Z"/></g>
<g><path style="opacity:0.753" fill="#f1ac8b" d="M 179.5,158.5 C 176.833,159.167 174.167,159.833 171.5,160.5C 165.5,160.833 159.5,161.167 153.5,161.5C 153.5,161.167 153.5,160.833 153.5,160.5C 162.127,159.477 170.794,158.811 179.5,158.5 Z"/></g>
<g><path style="opacity:1" fill="#e77a4e" d="M 187.5,157.5 C 187.119,158.931 186.119,159.764 184.5,160C 180.179,160.499 175.846,160.666 171.5,160.5C 174.167,159.833 176.833,159.167 179.5,158.5C 181.948,157.527 184.615,157.194 187.5,157.5 Z"/></g>
<g><path style="opacity:1" fill="#e55623" d="M 171.5,160.5 C 162.717,162.122 153.717,163.289 144.5,164C 136.841,164.5 129.174,164.666 121.5,164.5C 121.5,164.167 121.5,163.833 121.5,163.5C 132.18,162.999 142.847,162.333 153.5,161.5C 159.5,161.167 165.5,160.833 171.5,160.5 Z"/></g>
<g><path style="opacity:0.667" fill="#f1b296" d="M 153.5,160.5 C 153.5,160.833 153.5,161.167 153.5,161.5C 142.847,162.333 132.18,162.999 121.5,163.5C 121.167,163.5 120.833,163.5 120.5,163.5C 120.5,163.167 120.5,162.833 120.5,162.5C 131.491,161.709 142.491,161.042 153.5,160.5 Z"/></g>
<g><path style="opacity:0.62" fill="#f5bba0" d="M 236.5,151.5 C 238.809,161.263 240.476,171.263 241.5,181.5C 240.135,178.264 239.135,174.931 238.5,171.5C 237.703,164.848 237.036,158.181 236.5,151.5 Z"/></g>
<g><path style="opacity:0.192" fill="#fcdec8" d="M 120.5,162.5 C 120.5,162.833 120.5,163.167 120.5,163.5C 118.5,163.5 116.5,163.5 114.5,163.5C 115.292,167.078 116.625,170.412 118.5,173.5C 116.159,171.344 114.159,168.844 112.5,166C 113.337,164.989 113.67,163.822 113.5,162.5C 115.833,162.5 118.167,162.5 120.5,162.5 Z"/></g>
<g><path style="opacity:1" fill="#d86f45" d="M 120.5,163.5 C 120.833,163.5 121.167,163.5 121.5,163.5C 121.5,163.833 121.5,164.167 121.5,164.5C 119.833,164.5 118.167,164.5 116.5,164.5C 117.623,168.629 119.623,172.295 122.5,175.5C 121.833,175.5 121.167,175.5 120.5,175.5C 119.167,175.5 118.5,174.833 118.5,173.5C 116.625,170.412 115.292,167.078 114.5,163.5C 116.5,163.5 118.5,163.5 120.5,163.5 Z"/></g>
<g><path style="opacity:1" fill="#e35b29" d="M 192.5,181.5 C 190.399,178.821 188.399,175.988 186.5,173C 185.251,172.26 184.251,172.427 183.5,173.5C 181.973,173.427 180.973,174.094 180.5,175.5C 179.29,175.932 178.29,176.599 177.5,177.5C 176.833,177.5 176.167,177.5 175.5,177.5C 176.686,175.519 178.019,173.519 179.5,171.5C 181.102,172.55 181.935,171.883 182,169.5C 187.64,171.425 191.14,175.425 192.5,181.5 Z"/></g>
<g><path style="opacity:0.027" fill="#fbcaba" d="M 183.5,173.5 C 183.027,174.906 182.027,175.573 180.5,175.5C 180.973,174.094 181.973,173.427 183.5,173.5 Z"/></g>
<g><path style="opacity:0.016" fill="#ffe7d7" d="M 180.5,175.5 C 180.179,177.048 179.179,177.715 177.5,177.5C 178.29,176.599 179.29,175.932 180.5,175.5 Z"/></g>
<g><path style="opacity:0.18" fill="#fed5c2" d="M 183.5,173.5 C 184.251,172.427 185.251,172.26 186.5,173C 188.399,175.988 190.399,178.821 192.5,181.5C 192.5,181.833 192.5,182.167 192.5,182.5C 193.11,183.391 193.443,184.391 193.5,185.5C 190.529,182.246 188.029,178.58 186,174.5C 185.329,173.748 184.496,173.414 183.5,173.5 Z"/></g>
<g><path style="opacity:0.922" fill="#eba079" d="M 92.5,175.5 C 94.0075,177.181 95.0075,179.181 95.5,181.5C 93.0311,180.393 92.0311,178.393 92.5,175.5 Z"/></g>
<g><path style="opacity:0.165" fill="#f4c0a1" d="M 120.5,175.5 C 121.167,175.5 121.833,175.5 122.5,175.5C 124.912,178.178 127.579,180.512 130.5,182.5C 126.167,181.609 122.834,179.276 120.5,175.5 Z"/></g>
<g><path style="opacity:0.98" fill="#da7750" d="M 175.5,177.5 C 176.167,177.5 176.833,177.5 177.5,177.5C 175.819,179.008 173.819,180.008 171.5,180.5C 169.079,180.878 166.746,181.545 164.5,182.5C 165.058,181.21 166.058,180.377 167.5,180C 170.285,179.342 172.951,178.509 175.5,177.5 Z"/></g>
<g><path style="opacity:0.694" fill="#f4b293" d="M 95.5,181.5 C 97.2624,182.262 98.2624,183.596 98.5,185.5C 96.7376,184.738 95.7376,183.404 95.5,181.5 Z"/></g>
<g><path style="opacity:0.004" fill="#fedccb" d="M 171.5,180.5 C 169.316,182.585 166.649,183.585 163.5,183.5C 163.5,183.167 163.5,182.833 163.5,182.5C 163.833,182.5 164.167,182.5 164.5,182.5C 166.746,181.545 169.079,180.878 171.5,180.5 Z"/></g>
<g><path style="opacity:1" fill="#e25728" d="M 134.5,182.5 C 144.131,183.046 153.798,183.046 163.5,182.5C 163.5,182.833 163.5,183.167 163.5,183.5C 154.849,184.42 146.183,184.587 137.5,184C 136.263,183.768 135.263,183.268 134.5,182.5 Z"/></g>
<g><path style="opacity:0.83" fill="#f0aa8b" d="M 130.5,182.5 C 131.833,182.5 133.167,182.5 134.5,182.5C 135.263,183.268 136.263,183.768 137.5,184C 146.183,184.587 154.849,184.42 163.5,183.5C 152.361,187.753 141.361,187.42 130.5,182.5 Z"/></g>
<g><path style="opacity:0.831" fill="#f1ab8e" d="M 98.5,185.5 C 100.549,186.882 102.215,188.548 103.5,190.5C 100.833,189.833 99.1667,188.167 98.5,185.5 Z"/></g>
<g><path style="opacity:0.8" fill="#efb394" d="M 241.5,182.5 C 242.617,186.295 243.283,190.295 243.5,194.5C 241.75,190.817 241.083,186.817 241.5,182.5 Z"/></g>
<g><path style="opacity:1" fill="#e06337" d="M 192.5,182.5 C 195.247,183.973 196.081,186.306 195,189.5C 193.871,191.141 192.371,192.141 190.5,192.5C 191.5,191.167 192.5,189.833 193.5,188.5C 193.5,187.5 193.5,186.5 193.5,185.5C 193.443,184.391 193.11,183.391 192.5,182.5 Z"/></g>
<g><path style="opacity:0.533" fill="#f1b896" d="M 103.5,190.5 C 105.23,191.026 106.564,192.026 107.5,193.5C 106.391,193.443 105.391,193.11 104.5,192.5C 103.662,192.158 103.328,191.492 103.5,190.5 Z"/></g>
<g><path style="opacity:0.369" fill="#f9c0a6" d="M 193.5,188.5 C 192.5,189.833 191.5,191.167 190.5,192.5C 188.079,194.238 185.412,195.571 182.5,196.5C 185.627,193.102 189.293,190.435 193.5,188.5 Z"/></g>
<g><path style="opacity:0.098" fill="#fbd4bd" d="M 107.5,193.5 C 109.027,193.427 110.027,194.094 110.5,195.5C 108.973,195.573 107.973,194.906 107.5,193.5 Z"/></g>
<g><path style="opacity:1" fill="#e46839" d="M 104.5,192.5 C 105.391,193.11 106.391,193.443 107.5,193.5C 107.973,194.906 108.973,195.573 110.5,195.5C 114.037,199.022 118.37,201.022 123.5,201.5C 125.099,201.232 126.432,201.566 127.5,202.5C 128.833,203.167 130.167,203.833 131.5,204.5C 122.046,203.773 113.379,200.773 105.5,195.5C 104.873,194.583 104.539,193.583 104.5,192.5 Z"/></g>
<g><path style="opacity:0.212" fill="#faceb7" d="M 110.5,195.5 C 114.876,197.509 119.21,199.509 123.5,201.5C 118.37,201.022 114.037,199.022 110.5,195.5 Z"/></g>
<g><path style="opacity:0.161" fill="#f9ceb9" d="M 243.5,194.5 C 245.26,201.261 246.26,208.261 246.5,215.5C 246.167,215.5 245.833,215.5 245.5,215.5C 244.672,208.519 244.005,201.519 243.5,194.5 Z"/></g>
<g><path style="opacity:0.886" fill="#eca284" d="M 182.5,196.5 C 179.992,198.924 176.992,200.59 173.5,201.5C 172.833,201.5 172.167,201.5 171.5,201.5C 174.74,199.049 178.407,197.382 182.5,196.5 Z"/></g>
<g><path style="opacity:0.161" fill="#ffead9" d="M 169.5,201.5 C 167.786,202.738 165.786,203.405 163.5,203.5C 165.102,201.926 167.102,201.259 169.5,201.5 Z"/></g>
<g><path style="opacity:0.043" fill="#ffddc8" d="M 127.5,202.5 C 131.705,202.717 135.705,203.383 139.5,204.5C 136.833,204.5 134.167,204.5 131.5,204.5C 130.167,203.833 128.833,203.167 127.5,202.5 Z"/></g>
<g><path style="opacity:1" fill="#ec9570" d="M 169.5,201.5 C 170.167,201.5 170.833,201.5 171.5,201.5C 172.167,201.5 172.833,201.5 173.5,201.5C 168.01,204.653 162.01,205.986 155.5,205.5C 149.974,205.821 144.64,205.488 139.5,204.5C 147.521,204.558 155.521,204.224 163.5,203.5C 165.786,203.405 167.786,202.738 169.5,201.5 Z"/></g>
<g><path style="opacity:0.98" fill="#d8663b" d="M 131.5,204.5 C 134.167,204.5 136.833,204.5 139.5,204.5C 144.64,205.488 149.974,205.821 155.5,205.5C 152.518,206.165 149.352,206.498 146,206.5C 140.91,206.656 136.077,205.99 131.5,204.5 Z"/></g>
<g><path style="opacity:1" fill="#e45c2d" d="M 238.5,171.5 C 239.135,174.931 240.135,178.264 241.5,181.5C 241.5,181.833 241.5,182.167 241.5,182.5C 241.083,186.817 241.75,190.817 243.5,194.5C 244.005,201.519 244.672,208.519 245.5,215.5C 240.85,201.394 238.516,186.727 238.5,171.5 Z"/></g>
<g><path style="opacity:1" fill="#e77549" d="M 39.5,208.5 C 39.1511,214.743 38.1511,220.743 36.5,226.5C 36.5,223.833 36.5,221.167 36.5,218.5C 36.298,216.05 36.6314,213.717 37.5,211.5C 38.1667,210.5 38.8333,209.5 39.5,208.5 Z"/></g>
<g><path style="opacity:0.808" fill="#f3af90" d="M 246.5,215.5 C 248.569,223.588 249.903,231.921 250.5,240.5C 250.5,241.167 250.5,241.833 250.5,242.5C 250.167,242.5 249.833,242.5 249.5,242.5C 248.391,233.512 247.391,224.512 246.5,215.5 Z"/></g>
<g><path style="opacity:0.831" fill="#f5b799" d="M 36.5,218.5 C 36.5,221.167 36.5,223.833 36.5,226.5C 35.6255,229.535 34.6255,232.535 33.5,235.5C 33.5476,229.54 34.5476,223.873 36.5,218.5 Z"/></g>
<g><path style="opacity:1" fill="#ee5519" d="M 245.5,215.5 C 245.833,215.5 246.167,215.5 246.5,215.5C 247.391,224.512 248.391,233.512 249.5,242.5C 249.5,243.833 249.5,245.167 249.5,246.5C 177.5,246.5 105.5,246.5 33.5,246.5C 33.5,245.5 33.5,244.5 33.5,243.5C 33.5,240.833 33.5,238.167 33.5,235.5C 34.6255,232.535 35.6255,229.535 36.5,226.5C 36.3171,232.893 35.6504,239.226 34.5,245.5C 105.167,245.667 175.834,245.5 246.5,245C 248.637,242.821 248.971,240.321 247.5,237.5C 246.167,237.167 244.833,236.833 243.5,236.5C 245.679,234.299 246.679,231.633 246.5,228.5C 245.799,224.192 245.466,219.859 245.5,215.5 Z"/></g>
<g><path style="opacity:0.165" fill="#fed9c3" d="M 33.5,235.5 C 33.5,238.167 33.5,240.833 33.5,243.5C 32.5655,244.568 32.2322,245.901 32.5,247.5C 105.167,247.5 177.833,247.5 250.5,247.5C 250.5,245.833 250.5,244.167 250.5,242.5C 250.5,241.833 250.5,241.167 250.5,240.5C 251.216,242.556 251.883,244.723 252.5,247C 252.167,247.333 251.833,247.667 251.5,248C 178.167,248.667 104.833,248.667 31.5,248C 31.0426,247.586 30.7093,247.086 30.5,246.5C 31.6146,242.737 32.6146,239.07 33.5,235.5 Z"/></g>
<g><path style="opacity:0.934" fill="#d96434" d="M 249.5,242.5 C 249.833,242.5 250.167,242.5 250.5,242.5C 250.5,244.167 250.5,245.833 250.5,247.5C 177.833,247.5 105.167,247.5 32.5,247.5C 32.2322,245.901 32.5655,244.568 33.5,243.5C 33.5,244.5 33.5,245.5 33.5,246.5C 105.5,246.5 177.5,246.5 249.5,246.5C 249.5,245.167 249.5,243.833 249.5,242.5 Z"/></g>
</svg>
